<?xml version="1.0" standalone="no"?>
<!DOCTYPE svg PUBLIC "-//W3C//DTD SVG 20010904//EN"
 "http://www.w3.org/TR/2001/REC-SVG-20010904/DTD/svg10.dtd">
<svg version="1.0" xmlns="http://www.w3.org/2000/svg"
 width="709.000000pt" height="709.000000pt" viewBox="0 0 709.000000 709.000000"
 preserveAspectRatio="xMidYMid meet">
<metadata>
Created by potrace 1.11, written by Peter Selinger 2001-2013
</metadata>
<g transform="translate(0.000000,709.000000) scale(0.100000,-0.100000)"
fill="#000000" stroke="none">
<path d="M3437 6594 c-1 -1 -51 -5 -111 -9 -59 -4 -118 -8 -130 -10 -11 -2
-39 -6 -61 -9 -40 -6 -179 -31 -225 -40 -76 -16 -127 -28 -140 -33 -8 -3 -20
-7 -26 -8 -50 -11 -210 -65 -304 -102 -451 -180 -856 -465 -1170 -824 -95
-108 -106 -122 -155 -189 -21 -30 -42 -57 -45 -60 -3 -3 -35 -50 -71 -105
-181 -278 -311 -571 -398 -897 -22 -84 -60 -274 -67 -333 -2 -22 -6 -54 -9
-72 -18 -108 -24 -414 -11 -588 8 -112 9 -122 31 -270 7 -44 17 -94 36 -175
11 -47 22 -95 25 -108 7 -36 82 -260 110 -332 74 -189 252 -516 341 -627 18
-23 33 -44 33 -47 0 -10 162 -208 229 -280 285 -303 626 -548 996 -716 262
-118 650 -222 930 -248 167 -15 592 -8 715 13 84 13 108 17 131 21 47 6 213
45 284 65 311 91 539 194 805 363 52 33 97 63 100 66 3 3 19 14 35 24 17 11
84 62 150 115 161 129 308 276 475 478 40 48 182 254 235 343 172 283 308 646
371 985 38 205 43 266 40 590 -2 176 -7 338 -10 360 -53 306 -57 325 -118 520
-58 188 -180 468 -260 600 -7 11 -22 36 -33 55 -115 191 -291 415 -455 580
-130 130 -151 149 -270 243 -47 37 -90 71 -97 77 -27 22 -242 160 -296 189
-344 189 -562 267 -1001 356 -10 3 -44 7 -75 11 -31 3 -65 8 -75 10 -49 9
-451 25 -459 18z"/>
</g>
</svg>
