<?xml version="1.0" standalone="no"?>
<!DOCTYPE svg PUBLIC "-//W3C//DTD SVG 20010904//EN"
 "http://www.w3.org/TR/2001/REC-SVG-20010904/DTD/svg10.dtd">
<svg version="1.0" xmlns="http://www.w3.org/2000/svg"
 width="500.000000pt" height="500.000000pt" viewBox="0 0 500.000000 500.000000"
 preserveAspectRatio="xMidYMid meet">
<metadata>
Created by potrace 1.11, written by Peter Selinger 2001-2013
</metadata>
<g transform="translate(0.000000,500.000000) scale(0.100000,-0.100000)"
fill="#000000" stroke="none">
<path d="M2251 4484 c-571 -69 -1101 -400 -1424 -889 -384 -583 -432 -1342
-123 -1970 135 -275 322 -507 561 -697 795 -633 1959 -553 2670 183 161 166
258 305 361 514 333 678 251 1491 -215 2100 -68 90 -235 258 -331 335 -426
339 -958 490 -1499 424z m335 -613 c33 -16 76 -44 95 -63 29 -29 1087 -1727
1161 -1864 78 -144 20 -303 -140 -381 -51 -25 -68 -28 -157 -28 -92 0 -105 2
-166 32 -43 21 -79 48 -101 75 -19 24 -211 333 -428 688 -216 355 -398 651
-404 657 -9 10 -106 -142 -421 -659 -226 -369 -427 -689 -449 -711 -54 -56
-114 -79 -216 -85 -79 -4 -91 -2 -161 27 -158 66 -236 194 -196 323 20 64
1167 1897 1212 1937 106 93 241 112 371 52z"/>
</g>
</svg>
