<?xml version="1.0" standalone="no"?>
<!DOCTYPE svg PUBLIC "-//W3C//DTD SVG 20010904//EN"
 "http://www.w3.org/TR/2001/REC-SVG-20010904/DTD/svg10.dtd">
<svg version="1.0" xmlns="http://www.w3.org/2000/svg"
 width="595.000000pt" height="595.000000pt" viewBox="0 0 595.000000 595.000000"
 preserveAspectRatio="xMidYMid meet">
<metadata>
Created by potrace 1.11, written by Peter Selinger 2001-2013
</metadata>
<g transform="translate(0.000000,595.000000) scale(0.100000,-0.100000)"
fill="#000000" stroke="none">
<path d="M845 5839 c-104 -16 -170 -82 -199 -199 -9 -33 -12 -749 -11 -2675 1
-2499 2 -2633 19 -2683 21 -63 95 -143 146 -158 25 -7 697 -10 2195 -10 2110
1 2161 1 2190 20 40 26 91 83 112 126 17 33 18 184 21 2702 2 2656 2 2667 -18
2721 -22 60 -73 117 -127 142 -33 16 -196 17 -2162 19 -1169 0 -2144 -2 -2166
-5z"/>
</g>
</svg>
